<svg xml:space="preserve" style="enable-background:new 0 0 328.7 166;" viewBox="0 0 328.7 166" y="0px" x="0px" xmlns:xlink="http://www.w3.org/1999/xlink" xmlns="http://www.w3.org/2000/svg" id="Layer_1" version="1.1">
<style type="text/css">
	.st0{fill:url(#SVGID_1_);}
	.st1{fill:url(#SVGID_00000094588380818155899160000017645820867093760447_);}
	.st2{fill:url(#SVGID_00000158018259421948588310000015988993030046833797_);}
	.st3{fill:url(#SVGID_00000055705224443003594770000004315138175774028704_);}
	.st4{fill:url(#SVGID_00000039099551137595246860000013427418997627216021_);}
	.st5{fill:url(#SVGID_00000111895944566781994540000005786092718360012421_);}
	.st6{fill:url(#SVGID_00000135668461452204847890000009608027158182375818_);}
	.st7{fill:url(#SVGID_00000057846558450272385440000011727775222482584733_);}
	.st8{fill:#080000;}
	.st9{fill:url(#SVGID_00000121249529158063493180000002732743669518001042_);}
	.st10{fill:url(#SVGID_00000111882308357682762990000001495091278496095678_);}
	.st11{fill:url(#SVGID_00000101817497989445618580000004521505035706835332_);}
	.st12{fill:url(#SVGID_00000003072258974651328090000003533532352329209523_);}
	.st13{fill:url(#SVGID_00000021101878737161080100000000592490448038565024_);}
	.st14{fill:url(#SVGID_00000016042217274937062100000018045230770031469710_);}
	.st15{fill:url(#SVGID_00000030452363738034032080000017371584307924918164_);}
	.st16{fill:url(#SVGID_00000177459286338768550520000006576295579798070709_);}
	.st17{fill:#9E752B;}
	.st18{fill:url(#SVGID_00000040549413569136452460000009152417108088886715_);}
</style>
<g>
	<linearGradient y2="89.6855" x2="9.0576" y1="134.3535" x1="9.0576" gradientUnits="userSpaceOnUse" id="SVGID_1_">
		<stop style="stop-color:#9E752B" offset="0"></stop>
		<stop style="stop-color:#080000" offset="1"></stop>
	</linearGradient>
	<path d="M6.1,123.2c0.1,2.7,0.2,5.8,2.7,5.8c1.9,0,2.8-1.8,2.8-6.2c0-5-1.6-6.3-5.7-9.8c-1.6-1.4-5.4-5.2-5.4-11.9
		c0-6.1,2.3-11.3,8.4-11.3c6.3,0,8.1,5.2,8.4,9.5l-6.1,0.8c-0.5-4.8-1.4-4.8-2.3-4.8c-1.6,0-2,2-2,5.2c0,3.1,0.7,4.6,4.3,7.7
		c3.9,3.3,6.8,6.5,6.8,13.5c0,5.4-1.2,12.8-9.2,12.8c-7.6,0-8.9-6.3-8.9-10.5L6.1,123.2z" class="st0"></path>
	
		<linearGradient y2="90.2089" x2="28.1518" y1="133.83" x1="28.1518" gradientUnits="userSpaceOnUse" id="SVGID_00000136382784219839942410000008433404912340597676_">
		<stop style="stop-color:#9E752B" offset="0"></stop>
		<stop style="stop-color:#080000" offset="1"></stop>
	</linearGradient>
	<path d="M32,133.8l-1.5-12h-5.2l-1.4,12h-5.8
		l6.7-43.6h6.4l6.9,43.6H32z M30,116.5l-1-7.8c-0.3-2.1-1.2-10.7-1.3-11.9c-0.1,1.2-0.1,2.4-0.3,4.4c-0.4,4.2-0.5,4.6-0.7,7.6
		l-0.9,7.7H30z" style="fill:url(#SVGID_00000136382784219839942410000008433404912340597676_);"></path>
	
		<linearGradient y2="90.2089" x2="46.7886" y1="133.83" x1="46.7886" gradientUnits="userSpaceOnUse" id="SVGID_00000046328096076064483830000001655600627619658374_">
		<stop style="stop-color:#9E752B" offset="0"></stop>
		<stop style="stop-color:#080000" offset="1"></stop>
	</linearGradient>
	<path d="M39.4,133.8V90.2H46v38.1h8.2v5.6H39.4z" style="fill:url(#SVGID_00000046328096076064483830000001655600627619658374_);"></path>
	
		<linearGradient y2="90.2089" x2="64.0191" y1="134.3535" x1="64.0191" gradientUnits="userSpaceOnUse" id="SVGID_00000001623800635391963260000008500698536169154709_">
		<stop style="stop-color:#9E752B" offset="0"></stop>
		<stop style="stop-color:#080000" offset="1"></stop>
	</linearGradient>
	<path d="M61.6,90.2V123c0.1,3.8,0.1,5.4,2.4,5.4
		c2.4,0,2.4-1.9,2.4-5.4V90.2h6.5v32.2c0,4.5,0,11.9-8.8,11.9c-8.8,0-8.9-6.7-8.9-11.9V90.2H61.6z" style="fill:url(#SVGID_00000001623800635391963260000008500698536169154709_);"></path>
	
		<linearGradient y2="90.2089" x2="81.9688" y1="133.83" x1="81.9688" gradientUnits="userSpaceOnUse" id="SVGID_00000088102590448831503960000002198243299783350661_">
		<stop style="stop-color:#9E752B" offset="0"></stop>
		<stop style="stop-color:#080000" offset="1"></stop>
	</linearGradient>
	<path d="M78.7,133.8V95.8h-4.8v-5.6H90v5.6h-4.8
		v38.1H78.7z" style="fill:url(#SVGID_00000088102590448831503960000002198243299783350661_);"></path>
	
		<linearGradient y2="90.2089" x2="94.4248" y1="133.83" x1="94.4248" gradientUnits="userSpaceOnUse" id="SVGID_00000007395159950974790880000013129259018145789602_">
		<stop style="stop-color:#9E752B" offset="0"></stop>
		<stop style="stop-color:#080000" offset="1"></stop>
	</linearGradient>
	<path d="M91.2,133.8V90.2h6.5v43.6H91.2z" style="fill:url(#SVGID_00000007395159950974790880000013129259018145789602_);"></path>
	
		<linearGradient y2="90.2089" x2="110.4786" y1="133.83" x1="110.4786" gradientUnits="userSpaceOnUse" id="SVGID_00000165915967852696461710000006853500551363010467_">
		<stop style="stop-color:#9E752B" offset="0"></stop>
		<stop style="stop-color:#080000" offset="1"></stop>
	</linearGradient>
	<path d="M114.6,133.8l-5.8-19.3
		c-0.2-0.7-1.6-5-2.8-11c0.2,5,0.5,13.5,0.5,16.2v14.1h-5.4V90.2h5.5l5.6,19.6c1.5,5.3,2,7.3,3,11.4c-0.3-5.2-0.6-10.8-0.6-15.6
		V90.2h5.3v43.6H114.6z" style="fill:url(#SVGID_00000165915967852696461710000006853500551363010467_);"></path>
	
		<linearGradient y2="89.6855" x2="131.9287" y1="134.2226" x1="131.9287" gradientUnits="userSpaceOnUse" id="SVGID_00000070839192622330683390000013970528373003147705_">
		<stop style="stop-color:#9E752B" offset="0"></stop>
		<stop style="stop-color:#080000" offset="1"></stop>
	</linearGradient>
	<path d="M137.4,134.1l-0.6-3.5
		c-0.7,1.8-2.1,3.6-5.5,3.6c-7.4,0-9.1-7.9-9.1-22.3c0-11.8,0.4-22.2,10.1-22.2c7,0,8.6,5.7,9.4,10.6l-6.4,0.9
		c-0.4-4.7-1.5-5.9-3-5.9c-2.1,0-2.6,2-2.8,4c-0.4,2.8-0.4,9.2-0.4,12.2c0,3.3,0.1,10.3,0.4,13.1c0.3,1.7,0.7,4.4,3,4.4
		c2.7,0,3.1-2.9,3.1-8.6v-2.8h-3.1v-5.8h9.2v22.2H137.4z" style="fill:url(#SVGID_00000070839192622330683390000013970528373003147705_);"></path>
</g>
<g>
	<polygon points="157.6,146.1 0.5,146.1 0.5,147.1 157.3,147.1" class="st8"></polygon>
	<polygon points="171.4,146.1 171.7,147.1 328,147.1 328,146.1" class="st8"></polygon>
</g>
<g>
	
		<linearGradient y2="90.1435" x2="195.1054" y1="133.7646" x1="195.1054" gradientUnits="userSpaceOnUse" id="SVGID_00000084526102316541210800000018394551904371560893_">
		<stop style="stop-color:#9E752B" offset="0"></stop>
		<stop style="stop-color:#080000" offset="1"></stop>
	</linearGradient>
	<path d="M187.2,90.1h5.3c3,0,9.4,0,9.4,10.8
		c0,1.6,0,8.6-4.4,9.6c4.9,1.2,5.5,7.6,5.5,10.9c0,10.1-4.3,12.4-10.5,12.4h-5.3V90.1z M192.8,108.3h0.8c2.3,0,2.8-1.8,2.8-6.7
		c0-6-1.5-6.3-2.8-6.3h-0.8V108.3z M192.8,128.6h1c2.7,0,3.2-1.9,3.2-7.6c0-7.5-1.7-7.8-3.2-7.8h-1V128.6z" style="fill:url(#SVGID_00000084526102316541210800000018394551904371560893_);"></path>
	
		<linearGradient y2="90.1435" x2="213.6324" y1="133.7646" x1="213.6324" gradientUnits="userSpaceOnUse" id="SVGID_00000117674915861641072550000009349569936207634355_">
		<stop style="stop-color:#9E752B" offset="0"></stop>
		<stop style="stop-color:#080000" offset="1"></stop>
	</linearGradient>
	<path d="M216.2,133.8l-3.9-18.8h-1.4v18.8H205
		V90.1h6.9c2.4,0,5,0.4,6.8,3.1c1.2,1.8,2.3,4.3,2.3,9.5c0,8.3-2.3,9.9-3.6,10.7l5,20.3H216.2z M210.9,109.3h1c2.2,0,2.8-1.2,2.8-7
		c0-6.6-1.3-6.6-2.8-6.6h-1V109.3z" style="fill:url(#SVGID_00000117674915861641072550000009349569936207634355_);"></path>
	
		<linearGradient y2="90.1435" x2="230.8217" y1="133.7646" x1="230.8217" gradientUnits="userSpaceOnUse" id="SVGID_00000073690981604795943280000001614636144969216934_">
		<stop style="stop-color:#9E752B" offset="0"></stop>
		<stop style="stop-color:#080000" offset="1"></stop>
	</linearGradient>
	<path d="M234.4,133.8l-1.4-12h-4.8l-1.2,12h-5.3
		l6.1-43.6h5.8l6.3,43.6H234.4z M232.5,116.4l-0.9-7.8c-0.2-2.1-1.1-10.7-1.2-11.9c-0.1,1.2-0.1,2.4-0.3,4.4
		c-0.4,4.2-0.4,4.6-0.7,7.6l-0.8,7.7H232.5z" style="fill:url(#SVGID_00000073690981604795943280000001614636144969216934_);"></path>
	
		<linearGradient y2="90.1435" x2="248.9922" y1="133.7646" x1="248.9922" gradientUnits="userSpaceOnUse" id="SVGID_00000098178968794048284820000001334620870886201523_">
		<stop style="stop-color:#9E752B" offset="0"></stop>
		<stop style="stop-color:#080000" offset="1"></stop>
	</linearGradient>
	<path d="M252.7,133.8l-5.3-19.3
		c-0.2-0.7-1.4-5-2.6-11c0.2,5,0.5,13.5,0.5,16.2v14.1h-4.9V90.1h5l5,19.6c1.4,5.3,1.8,7.3,2.7,11.4c-0.3-5.2-0.5-10.8-0.5-15.6
		V90.1h4.8v43.6H252.7z" style="fill:url(#SVGID_00000098178968794048284820000001334620870886201523_);"></path>
	
		<linearGradient y2="89.6201" x2="267.5766" y1="134.288" x1="267.5766" gradientUnits="userSpaceOnUse" id="SVGID_00000180331555846118807590000009049082209677013672_">
		<stop style="stop-color:#9E752B" offset="0"></stop>
		<stop style="stop-color:#080000" offset="1"></stop>
	</linearGradient>
	<path d="M276.1,123.9c-0.5,4.1-1.7,10.4-8,10.4
		c-7,0-9.1-7-9.1-22.6c0-15.4,2.2-22.1,9-22.1c4.6,0,7.4,3.4,8,10.9l-5.5,0.8c-0.3-4.3-0.9-6.2-2.6-6.2c-1.6,0-2,2-2.3,4.3
		c-0.4,3.3-0.4,8.3-0.4,12.7c0,4,0,11.2,0.8,14.5c0.1,0.7,0.6,2.2,2,2.2c1.8,0,2.1-2.2,2.4-5.7L276.1,123.9z" style="fill:url(#SVGID_00000180331555846118807590000009049082209677013672_);"></path>
	
		<linearGradient y2="90.1435" x2="285.9262" y1="133.7646" x1="285.9262" gradientUnits="userSpaceOnUse" id="SVGID_00000175287049371770413350000008124471391835440004_">
		<stop style="stop-color:#9E752B" offset="0"></stop>
		<stop style="stop-color:#080000" offset="1"></stop>
	</linearGradient>
	<path d="M288.5,133.8v-19.4h-5.2v19.4h-5.9V90.1
		h5.9v18.4h5.2V90.1h5.9v43.6H288.5z" style="fill:url(#SVGID_00000175287049371770413350000008124471391835440004_);"></path>
	
		<linearGradient y2="90.1435" x2="304.0074" y1="133.7646" x1="304.0074" gradientUnits="userSpaceOnUse" id="SVGID_00000093877631172159170860000016927856528749273499_">
		<stop style="stop-color:#9E752B" offset="0"></stop>
		<stop style="stop-color:#080000" offset="1"></stop>
	</linearGradient>
	<path d="M297,133.8V90.1h13.5v5.6h-7.5v12.4h5.5
		v5.6h-5.5v14.5h8.1v5.6H297z" style="fill:url(#SVGID_00000093877631172159170860000016927856528749273499_);"></path>
	
		<linearGradient y2="89.6201" x2="320.4258" y1="134.288" x1="320.4258" gradientUnits="userSpaceOnUse" id="SVGID_00000120552750455872311180000004010135330661721477_">
		<stop style="stop-color:#9E752B" offset="0"></stop>
		<stop style="stop-color:#080000" offset="1"></stop>
	</linearGradient>
	<path d="M317.7,123.1c0.1,2.7,0.2,5.8,2.5,5.8
		c1.7,0,2.6-1.8,2.6-6.2c0-5-1.4-6.3-5.2-9.8c-1.5-1.4-4.9-5.2-4.9-11.9c0-6.1,2.1-11.3,7.7-11.3c5.7,0,7.4,5.2,7.7,9.5l-5.5,0.8
		c-0.4-4.8-1.2-4.8-2.1-4.8c-1.4,0-1.8,2-1.8,5.2c0,3.1,0.7,4.6,3.9,7.7c3.5,3.3,6.2,6.5,6.2,13.5c0,5.4-1.1,12.8-8.4,12.8
		c-6.9,0-8.1-6.3-8.1-10.5L317.7,123.1z" style="fill:url(#SVGID_00000120552750455872311180000004010135330661721477_);"></path>
</g>
<g>
	<path d="M5.1,155.2L8,165.9H6.2l-0.7-2.7H2.4l-0.7,2.7H0.1l3.1-10.7H5.1z M5.2,161.8L4,156.9l-1.2,4.9H5.2z" class="st17"></path>
	<path d="M12.4,158v1.8c0.2-0.5,0.7-1.9,2-1.9c0.1,0,0.2,0,0.3,0v1.7c-1.7-0.2-2.1,1.1-2.1,2.3v4h-1.6V158H12.4z" class="st17"></path>
	<path d="M18.9,155.2v3.7c0.3-0.4,0.8-1,1.8-1c2.2,0,2.7,2.4,2.7,4c0,0.9-0.1,3.1-1.6,3.9c-0.5,0.3-1.1,0.3-1.3,0.3
		c-1.3,0-1.7-0.7-1.9-1.2c-0.1,0.3-0.2,0.5-0.4,1.1h-0.9v-10.7H18.9z M18.9,162.5c0,0.5,0,2.3,1.4,2.3c1,0,1.4-1,1.4-3
		c0-1.6-0.2-2.8-1.4-2.8c-0.2,0-0.6,0-0.9,0.4c-0.5,0.6-0.5,1.2-0.5,1.6V162.5z" class="st17"></path>
	<path d="M32.7,161.8c0,1.8-0.4,4.2-3.1,4.2c-2.4,0-3.1-2.1-3.1-4.1c0-1.9,0.5-4.1,3.1-4.1
		C32,157.8,32.7,159.9,32.7,161.8z M28.2,161.9c0,2.1,0.5,2.9,1.4,2.9c0.9,0,1.4-0.8,1.4-2.9c0-2-0.4-2.9-1.4-2.9
		C28.6,159,28.2,160,28.2,161.9z" class="st17"></path>
	<path d="M37.6,158v1.8c0.2-0.5,0.7-1.9,2-1.9c0.1,0,0.2,0,0.3,0v1.7c-1.7-0.2-2.1,1.1-2.1,2.3v4h-1.6V158H37.6z" class="st17"></path>
	<path d="M42.4,156.9v-1.7h1.7v1.7H42.4z M44.1,158v7.9h-1.6V158H44.1z" class="st17"></path>
	<path d="M51.5,160.2c-0.1-0.4-0.4-1.2-1.3-1.2c-0.7,0-1,0.5-1,1c0,0.7,0.5,0.9,1.6,1.2c0.9,0.3,2.3,0.8,2.3,2.4
		c0,1.2-0.9,2.5-2.9,2.5c-2.4,0-2.7-1.7-2.8-2.3l1.4-0.3c0.1,0.4,0.3,1.4,1.5,1.4c1.1,0,1.2-0.8,1.2-1c0-0.8-0.7-1-1.4-1.2
		c-1.1-0.4-2.5-0.8-2.5-2.4c0-1.2,1-2.4,2.6-2.4c2,0,2.4,1.5,2.6,2L51.5,160.2z" class="st17"></path>
	<path d="M59.4,159.3h-1.5v3.5c0,1.4,0,1.9,1.1,1.9c0.3,0,0.5,0,0.7,0v1.3c-0.3,0.1-0.7,0.1-1.2,0.1
		c-2.1,0-2.1-1.4-2.1-3.2v-3.6h-1V158h1.1l0.1-2.1l1.5-0.1v2.2h1.5V159.3z" class="st17"></path>
	<path d="M66,160.2c-0.1-0.4-0.4-1.2-1.3-1.2c-0.7,0-1,0.5-1,1c0,0.7,0.5,0.9,1.6,1.2c0.9,0.3,2.3,0.8,2.3,2.4
		c0,1.2-0.9,2.5-2.9,2.5c-2.4,0-2.7-1.7-2.8-2.3l1.4-0.3c0.1,0.4,0.3,1.4,1.5,1.4c1.1,0,1.2-0.8,1.2-1c0-0.8-0.7-1-1.4-1.2
		c-1.1-0.4-2.5-0.8-2.5-2.4c0-1.2,1-2.4,2.6-2.4c2,0,2.4,1.5,2.6,2L66,160.2z" class="st17"></path>
	<path d="M78.4,155.2v6.6c0,1.4,0,2.8,1.8,2.8c1.7,0,1.7-1.3,1.7-2.8v-6.6h1.6v6.5c0,1.6,0,2.9-1.1,3.7
		c-0.4,0.3-1.1,0.7-2.3,0.7c-3.4,0-3.4-2.4-3.4-4.2v-6.6H78.4z" class="st17"></path>
	<path d="M87.4,158h1.5v1.2c0.2-0.4,0.6-1.4,2-1.4c0.5,0,1.3,0.1,1.8,1c0.3,0.5,0.3,1.2,0.3,2v5.1h-1.6v-5
		c0-1,0-1.8-0.9-1.8c-1.3,0-1.3,1.5-1.3,2.4v4.4h-1.6V158z" class="st17"></path>
	<path d="M96.6,156.9v-1.7h1.7v1.7H96.6z M98.3,158v7.9h-1.6V158H98.3z" class="st17"></path>
	<path d="M105.3,159.3h-1.5v3.5c0,1.4,0,1.9,1.1,1.9c0.3,0,0.5,0,0.7,0v1.3c-0.3,0.1-0.7,0.1-1.2,0.1
		c-2.1,0-2.1-1.4-2.1-3.2v-3.6h-1V158h1.1l0.1-2.1l1.5-0.1v2.2h1.5V159.3z" class="st17"></path>
	<path d="M109.8,162.2c0,0.9,0,2.7,1.5,2.7c1.1,0,1.3-0.9,1.4-1.5l1.5,0.2c-0.1,0.6-0.6,2.5-2.9,2.5
		c-2.3,0-3.1-2-3.1-4c0-2.9,1.4-4.3,3.2-4.3c1.3,0,2.1,0.8,2.4,1.4c0.5,1.1,0.6,2,0.6,3H109.8z M112.6,161.1c0-0.3,0-0.7-0.1-1.1
		c-0.3-0.8-0.9-1-1.2-1c-1,0-1.3,1-1.4,2.1H112.6z" class="st17"></path>
	<path d="M123.3,155.2v10.7h-1.5v-1.2c-0.2,0.5-0.6,1.3-2,1.3c-2.2,0-2.6-2.5-2.6-4c0-2.7,1.1-4.1,2.7-4.1
		c1.2,0,1.6,0.7,1.8,1.1v-3.7H123.3z M121.7,161.2c0-0.5,0-1-0.3-1.5c-0.2-0.3-0.5-0.7-1.1-0.7c-1.2,0-1.4,1.5-1.4,2.8
		c0,1.3,0.1,3,1.4,3c0.5,0,0.8-0.3,1.1-0.6c0.2-0.3,0.3-0.7,0.3-1.6V161.2z" class="st17"></path>
	<path d="M136.3,158v1.3h-1.4v6.6h-1.6v-6.6h-1V158h1c0-1.5,0-3.1,2.3-3.1c0.5,0,0.7,0,1,0.1v1.3
		c-0.1,0-0.3-0.1-0.6-0.1c-1,0-1.1,0.5-1.1,1.8H136.3z" class="st17"></path>
	<path d="M145,161.8c0,1.8-0.4,4.2-3.1,4.2c-2.4,0-3.1-2.1-3.1-4.1c0-1.9,0.5-4.1,3.1-4.1
		C144.3,157.8,145,159.9,145,161.8z M140.5,161.9c0,2.1,0.5,2.9,1.4,2.9c0.9,0,1.4-0.8,1.4-2.9c0-2-0.4-2.9-1.4-2.9
		C140.9,159,140.5,160,140.5,161.9z" class="st17"></path>
	<path d="M149.9,158v1.8c0.2-0.5,0.7-1.9,2-1.9c0.1,0,0.2,0,0.3,0v1.7c-1.7-0.2-2.1,1.1-2.1,2.3v4h-1.6V158H149.9z" class="st17"></path>
	<path d="M161.5,155.2l2,8.5l2-8.5h1.6l-2.8,10.7l-1.9,0l-2.8-10.7H161.5z" class="st17"></path>
	<path d="M170.4,162.2c0,0.9,0,2.7,1.5,2.7c1.1,0,1.3-0.9,1.4-1.5l1.5,0.2c-0.1,0.6-0.6,2.5-2.9,2.5
		c-2.3,0-3.1-2-3.1-4c0-2.9,1.4-4.3,3.2-4.3c1.3,0,2.1,0.8,2.4,1.4c0.5,1.1,0.6,2,0.6,3H170.4z M173.2,161.1c0-0.3,0-0.7-0.1-1.1
		c-0.3-0.8-0.9-1-1.2-1c-1,0-1.3,1-1.4,2.1H173.2z" class="st17"></path>
	<path d="M181.3,159.3h-1.5v3.5c0,1.4,0,1.9,1.1,1.9c0.3,0,0.5,0,0.7,0v1.3c-0.3,0.1-0.7,0.1-1.2,0.1
		c-2.1,0-2.1-1.4-2.1-3.2v-3.6h-1V158h1.1l0.1-2.1l1.5-0.1v2.2h1.5V159.3z" class="st17"></path>
	<path d="M185.7,162.2c0,0.9,0,2.7,1.5,2.7c1.1,0,1.3-0.9,1.4-1.5l1.5,0.2c-0.1,0.6-0.6,2.5-2.9,2.5
		c-2.3,0-3.1-2-3.1-4c0-2.9,1.4-4.3,3.2-4.3c1.3,0,2.1,0.8,2.4,1.4c0.5,1.1,0.6,2,0.6,3H185.7z M188.5,161.1c0-0.3,0-0.7-0.1-1.1
		c-0.3-0.8-0.9-1-1.2-1c-1,0-1.3,1-1.4,2.1H188.5z" class="st17"></path>
	<path d="M194.9,158v1.8c0.2-0.5,0.7-1.9,2-1.9c0.1,0,0.2,0,0.3,0v1.7c-1.7-0.2-2.1,1.1-2.1,2.3v4h-1.6V158H194.9z" class="st17"></path>
	<path d="M199.7,160c0.4-2,2.2-2.2,3-2.2c1.1,0,1.8,0.4,2.2,0.8c0.5,0.5,0.5,1.5,0.5,2.4v2.7c0,0.7,0,1.6,0.1,2.2h-1.5
		c-0.1-0.4-0.1-0.6-0.1-1.3c-0.3,0.6-0.8,1.5-2.2,1.5c-1.3,0-2.2-0.8-2.2-2.3c0-1.3,0.7-2.1,1.6-2.5c0.7-0.2,1.5-0.4,2.7-0.3v-0.3
		c0-0.6,0-1.7-1.2-1.7c-1,0-1.2,0.9-1.3,1.2L199.7,160z M203.7,162c-0.3,0-0.4,0-0.5,0c-1.9,0-2.1,0.9-2.1,1.7
		c0,0.9,0.5,1.2,1.1,1.2c0.7,0,1.6-0.7,1.6-2.4V162z" class="st17"></path>
	<path d="M209.1,158h1.5v1.2c0.2-0.4,0.6-1.4,2-1.4c0.5,0,1.3,0.1,1.8,1c0.3,0.5,0.3,1.2,0.3,2v5.1H213v-5
		c0-1,0-1.8-0.9-1.8c-1.3,0-1.3,1.5-1.3,2.4v4.4h-1.6V158z" class="st17"></path>
	<path d="M227.6,155.2c1,0,1.7,0.1,2.3,0.5c0.6,0.4,1.1,1.2,1.1,2.5c0,1.9-1.2,2.6-1.6,2.8l2,4.8h-1.9l-1.7-4.5h-1.7
		v4.5h-1.8v-10.7H227.6z M226.2,156.5v3.5h1.4c1.3,0,1.8-0.8,1.8-1.8c0-1.7-1.4-1.7-1.7-1.7H226.2z" class="st17"></path>
	<path d="M236,162.2c0,0.9,0,2.7,1.5,2.7c1.1,0,1.3-0.9,1.4-1.5l1.5,0.2c-0.1,0.6-0.6,2.5-2.9,2.5c-2.3,0-3.1-2-3.1-4
		c0-2.9,1.4-4.3,3.2-4.3c1.3,0,2.1,0.8,2.4,1.4c0.5,1.1,0.6,2,0.6,3H236z M238.8,161.1c0-0.3,0-0.7-0.1-1.1c-0.3-0.8-0.9-1-1.2-1
		c-1,0-1.3,1-1.4,2.1H238.8z" class="st17"></path>
	<path d="M243.8,158h1.5v1.2c0.3-0.6,0.7-1.4,2-1.4c1.5,0,1.7,1,1.8,1.5c0.2-0.5,0.6-1.5,2-1.5c0.5,0,1.3,0.1,1.7,0.8
		c0.3,0.5,0.3,1.5,0.3,2.3v5h-1.6V161c0-1.1,0-1.9-1-1.9c-0.9,0-1.2,0.8-1.2,2.1v4.6h-1.6v-4.8c0-1.2,0-1.3-0.2-1.6
		c-0.2-0.4-0.6-0.4-0.8-0.4c-1.3,0-1.3,1.4-1.3,2.2v4.6h-1.6V158z" class="st17"></path>
	<path d="M258.2,162.2c0,0.9,0,2.7,1.5,2.7c1.1,0,1.3-0.9,1.4-1.5l1.5,0.2c-0.1,0.6-0.6,2.5-2.9,2.5
		c-2.3,0-3.1-2-3.1-4c0-2.9,1.4-4.3,3.2-4.3c1.3,0,2.1,0.8,2.4,1.4c0.5,1.1,0.6,2,0.6,3H258.2z M261,161.1c0-0.3,0-0.7-0.1-1.1
		c-0.3-0.8-0.9-1-1.2-1c-1,0-1.3,1-1.4,2.1H261z" class="st17"></path>
	<path d="M266,158h1.5v1.2c0.3-0.6,0.7-1.4,2-1.4c1.5,0,1.7,1,1.8,1.5c0.2-0.5,0.6-1.5,2-1.5c0.5,0,1.3,0.1,1.7,0.8
		c0.3,0.5,0.3,1.5,0.3,2.3v5h-1.6V161c0-1.1,0-1.9-1-1.9c-0.9,0-1.2,0.8-1.2,2.1v4.6h-1.6v-4.8c0-1.2,0-1.3-0.2-1.6
		c-0.2-0.4-0.6-0.4-0.8-0.4c-1.3,0-1.3,1.4-1.3,2.2v4.6H266V158z" class="st17"></path>
	<path d="M280.7,155.2v3.7c0.3-0.4,0.8-1,1.8-1c2.2,0,2.7,2.4,2.7,4c0,0.9-0.1,3.1-1.6,3.9c-0.5,0.3-1.1,0.3-1.3,0.3
		c-1.3,0-1.7-0.7-1.9-1.2c-0.1,0.3-0.2,0.5-0.4,1.1h-0.9v-10.7H280.7z M280.7,162.5c0,0.5,0,2.3,1.4,2.3c1,0,1.4-1,1.4-3
		c0-1.6-0.2-2.8-1.4-2.8c-0.2,0-0.6,0-0.9,0.4c-0.5,0.6-0.5,1.2-0.5,1.6V162.5z" class="st17"></path>
	<path d="M290.1,158v1.8c0.2-0.5,0.7-1.9,2-1.9c0.1,0,0.2,0,0.3,0v1.7c-1.7-0.2-2.1,1.1-2.1,2.3v4h-1.6V158H290.1z" class="st17"></path>
	<path d="M294.9,160c0.4-2,2.2-2.2,3-2.2c1.1,0,1.8,0.4,2.2,0.8c0.5,0.5,0.5,1.5,0.5,2.4v2.7c0,0.7,0,1.6,0.1,2.2h-1.5
		c-0.1-0.4-0.1-0.6-0.1-1.3c-0.3,0.6-0.8,1.5-2.2,1.5c-1.3,0-2.2-0.8-2.2-2.3c0-1.3,0.7-2.1,1.6-2.5c0.7-0.2,1.5-0.4,2.7-0.3v-0.3
		c0-0.6,0-1.7-1.2-1.7c-1,0-1.2,0.9-1.3,1.2L294.9,160z M298.9,162c-0.3,0-0.4,0-0.5,0c-1.9,0-2.1,0.9-2.1,1.7
		c0,0.9,0.5,1.2,1.1,1.2c0.7,0,1.6-0.7,1.6-2.4V162z" class="st17"></path>
	<path d="M304.3,158h1.5v1.2c0.2-0.4,0.6-1.4,2-1.4c0.5,0,1.3,0.1,1.8,1c0.3,0.5,0.3,1.2,0.3,2v5.1h-1.6v-5
		c0-1,0-1.8-0.9-1.8c-1.3,0-1.3,1.5-1.3,2.4v4.4h-1.6V158z" class="st17"></path>
	<path d="M317.5,160.8c-0.1-0.9-0.3-1.7-1.2-1.7c-1.1,0-1.4,1.1-1.4,3c0,0.7,0,2.6,1.4,2.6c1,0,1.1-1,1.2-1.7l1.6,0.1
		c-0.1,1-0.4,2.9-2.9,2.9c-2.6,0-3-2.4-3-4.1c0-1.8,0.5-4.2,3.1-4.2c2.4,0,2.7,2,2.8,2.8L317.5,160.8z" class="st17"></path>
	<path d="M323.4,162.2c0,0.9,0,2.7,1.5,2.7c1.1,0,1.3-0.9,1.4-1.5l1.5,0.2c-0.1,0.6-0.6,2.5-2.9,2.5
		c-2.3,0-3.1-2-3.1-4c0-2.9,1.4-4.3,3.2-4.3c1.3,0,2.1,0.8,2.4,1.4c0.5,1.1,0.6,2,0.6,3H323.4z M326.2,161.1c0-0.3,0-0.7-0.1-1.1
		c-0.3-0.8-0.9-1-1.2-1c-1,0-1.3,1-1.4,2.1H326.2z" class="st17"></path>
</g>
<linearGradient y2="-9.094947e-13" x2="164.2866" y1="137.7343" x1="164.2866" gradientUnits="userSpaceOnUse" id="SVGID_00000154427756504488616480000007018015394646089912_">
	<stop style="stop-color:#9E752B" offset="0"></stop>
	<stop style="stop-color:#080000" offset="0.7791"></stop>
	<stop style="stop-color:#080000" offset="1"></stop>
</linearGradient>
<path d="M164.3,42.8l-37-24.3
	C135.7,7.4,149.3,0,164.3,0c0,0,0,0,0,0h0c15,0,28.5,7.4,36.9,18.5L164.3,42.8z M172,52.6l35.2-23.3c-1-2.5-2.2-5-3.6-7.3l-32.1,21
	L172,52.6z M157.1,43.1l-32.1-21c-1.4,2.3-2.6,4.7-3.6,7.3l35.2,23.3L157.1,43.1z M164.3,47.7l-5-3.3l-4.9,93.3h5.9l4.2-12.7
	l4.2,12.7h5.5l-4.9-93.3L164.3,47.7z M172.8,66.6L210.1,42c-0.3-3-0.8-5.8-1.6-8.6l-36.3,23.8L172.8,66.6z M155.5,71.3l-37.2-24.4
	c0.1,3.6,0.6,7.2,1.4,10.6L155,80.6L155.5,71.3z M173.1,71.3l0.5,9.3l35.3-23.1c0.9-3.4,1.4-6.9,1.4-10.6L173.1,71.3z M174.2,91.1
	c14.8-3.3,26.9-13.6,32.6-27.3l-32.9,21.6L174.2,91.1z M154.7,85.3l-32.9-21.6c5.7,13.7,17.8,24.1,32.6,27.3L154.7,85.3z
	 M156.3,57.2L120,33.4c-0.8,2.8-1.3,5.6-1.6,8.6l37.3,24.7L156.3,57.2z" style="fill:url(#SVGID_00000154427756504488616480000007018015394646089912_);"></path>
<g>
	<polygon points="153.1,142.3 0.5,142.3 0.5,143.3 154.4,143.3" class="st8"></polygon>
	<polygon points="175.8,142.3 174.5,143.3 328,143.3 328,142.3" class="st8"></polygon>
</g>
<polygon points="164.5,147.8 157.9,152.5 160.4,144.8 153.9,140 162,140 164.5,132.3 167,140 175.1,140 168.6,144.8 
	171.1,152.5" class="st17"></polygon>
<g>
	<path d="M326.7,82.2c0,1.1-0.4,2.1-1.2,2.9c-0.8,0.8-1.8,1.2-2.9,1.2c-1.1,0-2.1-0.4-2.9-1.2
		c-0.8-0.8-1.2-1.8-1.2-2.9s0.4-2.1,1.2-2.9s1.8-1.2,2.9-1.2c1.1,0,2.1,0.4,2.9,1.2S326.7,81.1,326.7,82.2z M325.9,82.2
		c0-0.9-0.3-1.8-1-2.4c-0.7-0.7-1.4-1-2.4-1c-0.9,0-1.7,0.3-2.4,1c-0.7,0.7-1,1.5-1,2.4c0,1,0.3,1.8,1,2.5c0.7,0.7,1.5,1,2.4,1
		c0.9,0,1.7-0.3,2.4-1C325.6,84,325.9,83.2,325.9,82.2z M324.6,84.6h-1.1l-0.8-1.9h-1.1v1.9h-1v-4.8h2.2c0.6,0,1.1,0.1,1.3,0.4
		c0.3,0.3,0.4,0.6,0.4,1c0,0.6-0.3,1-0.9,1.3L324.6,84.6z M321.7,81.9h1c0.6,0,0.9-0.2,0.9-0.7c0-0.4-0.3-0.6-0.8-0.6h-1.1V81.9z" class="st17"></path>
</g>
</svg>
